<?xml version="1.0" encoding="UTF-8" standalone="no"?>
<!-- Created with Inkscape (http://www.inkscape.org/) -->

<svg
   xmlns:dc="http://purl.org/dc/elements/1.1/"
   xmlns:cc="http://creativecommons.org/ns#"
   xmlns:rdf="http://www.w3.org/1999/02/22-rdf-syntax-ns#"
   xmlns:svg="http://www.w3.org/2000/svg"
   xmlns="http://www.w3.org/2000/svg"
   xmlns:sodipodi="http://sodipodi.sourceforge.net/DTD/sodipodi-0.dtd"
   xmlns:inkscape="http://www.inkscape.org/namespaces/inkscape"
   width="300"
   height="300"
   viewBox="0 0 79.374999 79.374999"
   version="1.1"
   id="svg930"
   inkscape:version="0.92.4 (5da689c313, 2019-01-14)"
   sodipodi:docname="Ainverse1.svg">
  <defs
     id="defs924" />
  <sodipodi:namedview
     id="base"
     pagecolor="#ffffff"
     bordercolor="#666666"
     borderopacity="1.0"
     inkscape:pageopacity="0.0"
     inkscape:pageshadow="2"
     inkscape:zoom="0.98994949"
     inkscape:cx="95.264791"
     inkscape:cy="186.18976"
     inkscape:document-units="mm"
     inkscape:current-layer="layer1"
     showgrid="false"
     units="px"
     inkscape:snap-global="true"
     inkscape:object-paths="true"
     inkscape:snap-intersection-paths="true"
     inkscape:snap-smooth-nodes="true"
     inkscape:snap-midpoints="true"
     inkscape:snap-object-midpoints="true"
     inkscape:snap-center="true"
     inkscape:snap-text-baseline="true"
     inkscape:snap-page="true"
     inkscape:window-width="1024"
     inkscape:window-height="705"
     inkscape:window-x="-8"
     inkscape:window-y="-8"
     inkscape:window-maximized="1" />
  <metadata
     id="metadata927">
    <rdf:RDF>
      <cc:Work
         rdf:about="">
        <dc:format>image/svg+xml</dc:format>
        <dc:type
           rdf:resource="http://purl.org/dc/dcmitype/StillImage" />
        <dc:title></dc:title>
      </cc:Work>
    </rdf:RDF>
  </metadata>
  <g
     inkscape:label="Layer 1"
     inkscape:groupmode="layer"
     id="layer1"
     transform="translate(0,-217.625)">
    <g
       transform="matrix(0.25489743,0,0,0.34539944,2.552435,207.44749)"
       id="layer1-5"
       inkscape:label="Layer 1"
       style="opacity:0.99999999">
      <flowRoot
         style="font-style:normal;font-variant:normal;font-weight:normal;font-stretch:normal;font-size:40px;line-height:1.25;font-family:'Segoe Print';-inkscape-font-specification:'Segoe Print';letter-spacing:0px;word-spacing:0px;fill:#000000;fill-opacity:1;stroke:none"
         id="flowRoot847"
         xml:space="preserve"><flowRegion
           style="font-style:normal;font-variant:normal;font-weight:normal;font-stretch:normal;font-family:'Segoe Print';-inkscape-font-specification:'Segoe Print'"
           id="flowRegion849"><rect
             style="font-style:normal;font-variant:normal;font-weight:normal;font-stretch:normal;font-family:'Segoe Print';-inkscape-font-specification:'Segoe Print'"
             y="271.00113"
             x="280"
             height="591.42859"
             width="574.28571"
             id="rect851" /></flowRegion><flowPara
           id="flowPara853" /></flowRoot>      <g
         id="flowRoot863"
         style="font-style:normal;font-variant:normal;font-weight:bold;font-stretch:normal;font-size:96px;line-height:1.25;font-family:sans-serif;-inkscape-font-specification:'sans-serif Bold';letter-spacing:0px;word-spacing:0px;fill:#000000;fill-opacity:1;stroke:none"
         transform="matrix(2.7669693,0,0,3.2986877,-658.0336,-1166.6967)"
         aria-label="A">
        <path
           inkscape:connector-curvature="0"
           id="path889"
           d="m 328.66672,432.30939 h -18.60938 l -4.82812,-14.10938 h -25.875 l -4.82813,14.10938 h -18.14062 l 25.78125,-69.79688 h 20.71875 z m -27.79688,-26.90625 -8.57812,-25.03125 -8.57813,25.03125 z"
           style="" />
      </g>
      <flowRoot
         style="font-style:normal;font-variant:normal;font-weight:bold;font-stretch:normal;font-size:192px;line-height:1.25;font-family:sans-serif;-inkscape-font-specification:'sans-serif Bold';letter-spacing:0px;word-spacing:0px;fill:#000000;fill-opacity:1;stroke:none"
         id="flowRoot871"
         xml:space="preserve"><flowRegion
           style="font-size:192px"
           id="flowRegion873"><rect
             style="font-size:192px"
             y="319.57257"
             x="225.71428"
             height="120"
             width="111.42857"
             id="rect875" /></flowRegion><flowPara
           id="flowPara877" /></flowRoot>      <flowRoot
         style="font-style:normal;font-variant:normal;font-weight:bold;font-stretch:normal;font-size:96px;line-height:1.25;font-family:sans-serif;-inkscape-font-specification:'sans-serif Bold';letter-spacing:0px;word-spacing:0px;fill:#000000;fill-opacity:1;stroke:none"
         id="flowRoot879"
         xml:space="preserve"><flowRegion
           id="flowRegion881"
           style=""><rect
             y="316.71542"
             x="251.42857"
             height="294.28571"
             width="125.71429"
             id="rect883"
             style="" /></flowRegion><flowPara
           id="flowPara885" /></flowRoot>      <path
         transform="matrix(0.67663544,0,0,1.2855811,48.633979,31.043974)"
         inkscape:transform-center-y="-12.843304"
         inkscape:transform-center-x="-0.10629306"
         d="m 185.96429,108.01191 -70.15715,0.54419 34.6073,-61.029972 z"
         inkscape:randomized="0"
         inkscape:rounded="0"
         inkscape:flatsided="true"
         sodipodi:arg2="1.5630398"
         sodipodi:arg1="0.51584224"
         sodipodi:r2="20.253235"
         sodipodi:r1="40.50647"
         sodipodi:cy="88.03138"
         sodipodi:cx="150.72862"
         sodipodi:sides="3"
         id="path896"
         style="fill:#ff6600;fill-opacity:1;stroke:#000000;stroke-width:1;stroke-miterlimit:4;stroke-dasharray:none;stroke-opacity:1"
         sodipodi:type="star" />
      <path
         inkscape:connector-curvature="0"
         id="path900"
         d="m 101.57166,259.35696 13.35929,-46.54243 h 71.59533"
         style="fill:none;stroke:#000000;stroke-width:0.26458332px;stroke-linecap:butt;stroke-linejoin:miter;stroke-opacity:1" />
      <path
         inkscape:connector-curvature="0"
         id="path914"
         d="m 101.57166,259.35696 h 98.31388"
         style="fill:none;stroke:#000000;stroke-width:0.26458332px;stroke-linecap:butt;stroke-linejoin:miter;stroke-opacity:1" />
      <path
         transform="matrix(0.26458333,0,0,0.26458333,0,-3)"
         inkscape:connector-curvature="0"
         id="path916"
         d="m 392.0342,970.18059 c 3.03623,-10.60714 14.05833,-49.19104 24.49357,-85.742 l 18.97316,-66.45629 134.59048,0.742 134.59047,0.74201 23.49686,81.42857 c 12.92326,44.78571 23.5304,83.03571 23.57143,85 0.0589,2.82068 -38.32151,3.57143 -182.5809,3.57143 H 386.51379 Z"
         style="fill:#000000;fill-opacity:1;stroke:#000000;stroke-width:10.79865074;stroke-miterlimit:4;stroke-dasharray:none;stroke-opacity:1" />
      <path
         transform="matrix(0.26458333,0,0,0.26458333,0,-3)"
         inkscape:connector-curvature="0"
         id="path920"
         d="m 289.35911,990.18159 c -91.06372,-0.78323 -92.44282,-0.88248 -90.96176,-6.54608 0.82713,-3.16295 61.04337,-197.93066 133.81387,-432.81715 L 464.52123,123.75202 h 107.73474 107.73471 l 4.45666,15 c 2.45114,8.25 62.69032,202.8291 133.86477,432.398 l 129.40812,417.398 -147.23346,1.88469 c -137.05994,1.75448 -286.47686,1.68105 -511.12766,-0.25115 z m 456.27515,-7.89388 c 0.5238,-0.50415 -9.11906,-36.37532 -21.42858,-79.71377 l -22.38094,-78.79718 -125,-0.52257 c -68.75,-0.28743 -127.89286,-0.61443 -131.42857,-0.72665 -5.99537,-0.19029 -7.99093,5.22885 -29.61378,80.42022 -12.75187,44.34338 -22.39473,81.46069 -21.42857,82.48292 1.70515,1.80414 349.37229,-1.30652 351.28044,-3.14297 z m -138.09523,-327.10712 -54.28572,-1.6198 52.4526,-0.61868 52.4526,-0.61866 -2.0064,-7.85714 c -1.10351,-4.32143 -2.40797,-9.78572 -2.8988,-12.14286 -2.39877,-11.51974 -5.24354,-21.70989 -6.77985,-24.28571 -0.93723,-1.57143 -1.88449,-3.82143 -2.10498,-5 -0.22057,-1.17858 -0.65017,-2.46429 -0.95488,-2.85715 -0.30469,-0.39285 -1.02914,-3.92857 -1.60989,-7.85714 -0.58074,-3.92857 -16.5636,-60.76171 -35.51743,-126.29591 -18.95385,-65.53416 -34.46154,-120.11274 -34.46154,-121.2857 0,-1.17297 -1.14706,-0.91125 -2.54903,0.58161 -2.31625,2.46642 -71.91954,242.67377 -73.22731,252.71429 -0.30703,2.35714 -1.9752,7.77205 -3.70706,12.03311 -1.73188,4.26106 -3.55346,10.68963 -4.04794,14.28571 -0.49449,3.59609 -1.6796,7.82403 -2.63357,9.39546 -0.954,1.57143 -2.62029,6.98806 -3.70286,12.03694 l -1.96831,9.1798 28.06091,0.93652 c 15.43349,0.51508 56.3466,0.9272 90.91803,0.91583 l 62.85714,-0.02 z"
         style="fill:#ffffff;fill-opacity:1;stroke:#000000;stroke-width:10.79865074;stroke-miterlimit:4;stroke-dasharray:none;stroke-opacity:1" />
      <path
         transform="matrix(0.26458333,0,0,0.26458333,0,-3)"
         inkscape:connector-curvature="0"
         id="path922"
         d="m 488.9676,648.41941 c 0,-9.87327 78.13113,-276.26027 80.34479,-273.93445 2.54979,2.67898 40.63517,127.09919 58.47503,191.03067 19.02858,68.19143 21.74668,78.64141 20.6877,79.53546 -1.69083,1.4275 -159.50752,4.76011 -159.50752,3.36832 z"
         style="fill:#000000;fill-opacity:1;stroke:#000000;stroke-width:10.79865074;stroke-miterlimit:4;stroke-dasharray:none;stroke-opacity:1" />
    </g>
    <path
       style="fill:none;stroke:#000000;stroke-width:0.26458332px;stroke-linecap:butt;stroke-linejoin:miter;stroke-opacity:1;opacity:0.99999999"
       d="M -0.37798,296.24405 18.89881,217.625 c 0,0 -19.27679,77.48512 -19.27679,78.61905 z"
       id="path1030"
       inkscape:connector-curvature="0" />
    <path
       id="path1036"
       style="fill:#ff0000;fill-opacity:1;fill-rule:evenodd;stroke:#000000;stroke-width:1;stroke-miterlimit:4;stroke-dasharray:none;stroke-opacity:1;opacity:0.99999999"
       d="m 18.898585,217.625 -19.27634,78.61897 0.64492,1.0232 L 15.654855,297 33.880615,217.7206 Z"
       inkscape:connector-curvature="0" />
    <path
       style="fill:#000000;fill-opacity:1;fill-rule:evenodd;stroke:#000000;stroke-width:1.01015258;stroke-miterlimit:4;stroke-dasharray:none;stroke-opacity:1;opacity:0.99999999"
       d="m 0.425904,296.43661 c -0.092,-0.14883 4.12737,-17.78744 9.37634,-39.19692 l 9.54358,-38.92631 h 6.89051 6.8905 l -0.14375,0.60136 c -0.0791,0.33074 -4.10649,17.84631 -8.94984,38.92348 -4.84335,21.07717 -8.85012,38.36615 -8.90393,38.41997 -0.25538,0.25537 -14.54866,0.42882 -14.70341,0.17842 z"
       id="path1109"
       inkscape:connector-curvature="0" />
  </g>
</svg>
