<?xml version="1.0" encoding="UTF-8" standalone="no"?>
<!-- Created with Inkscape (http://www.inkscape.org/) -->

<svg
   xmlns:osb="http://www.openswatchbook.org/uri/2009/osb"
   xmlns:dc="http://purl.org/dc/elements/1.1/"
   xmlns:cc="http://creativecommons.org/ns#"
   xmlns:rdf="http://www.w3.org/1999/02/22-rdf-syntax-ns#"
   xmlns:svg="http://www.w3.org/2000/svg"
   xmlns="http://www.w3.org/2000/svg"
   xmlns:xlink="http://www.w3.org/1999/xlink"
   xmlns:sodipodi="http://sodipodi.sourceforge.net/DTD/sodipodi-0.dtd"
   xmlns:inkscape="http://www.inkscape.org/namespaces/inkscape"
   width="210mm"
   height="297mm"
   viewBox="0 0 210 297"
   version="1.1"
   id="svg8"
   inkscape:export-filename="C:\Users\aniln\Desktop\WEB DEVELOPER\DIgiART.png"
   inkscape:export-xdpi="96"
   inkscape:export-ydpi="96"
   inkscape:version="0.92.4 (5da689c313, 2019-01-14)"
   sodipodi:docname="drawing.svg">
  <defs
     id="defs2">
    <linearGradient
       inkscape:collect="always"
       id="linearGradient6250">
      <stop
         style="stop-color:#000000;stop-opacity:1;"
         offset="0"
         id="stop6246" />
      <stop
         style="stop-color:#000000;stop-opacity:0;"
         offset="1"
         id="stop6248" />
    </linearGradient>
    <linearGradient
       id="linearGradient6242"
       osb:paint="solid">
      <stop
         style="stop-color:#000000;stop-opacity:1;"
         offset="0"
         id="stop6240" />
    </linearGradient>
    <inkscape:perspective
       sodipodi:type="inkscape:persp3d"
       inkscape:vp_x="81.233257 : 164.38137 : 1"
       inkscape:vp_y="0 : 732.01074 : 0"
       inkscape:vp_z="202.50088 : 168.67796 : 1"
       inkscape:persp3d-origin="161.05373 : 128.14684 : 1"
       id="perspective4606" />
    <linearGradient
       inkscape:collect="always"
       xlink:href="#linearGradient6250"
       id="linearGradient6252"
       x1="77.565217"
       y1="120.52689"
       x2="143.77159"
       y2="120.52689"
       gradientUnits="userSpaceOnUse" />
    <linearGradient
       inkscape:collect="always"
       xlink:href="#linearGradient6250"
       id="linearGradient6416"
       gradientUnits="userSpaceOnUse"
       x1="77.565217"
       y1="120.52689"
       x2="143.77159"
       y2="120.52689"
       gradientTransform="matrix(0.76019498,0,0,0.73201076,81.23326,23.91503)" />
    <linearGradient
       inkscape:collect="always"
       xlink:href="#linearGradient6250"
       id="linearGradient6418"
       gradientUnits="userSpaceOnUse"
       x1="77.565217"
       y1="120.52689"
       x2="143.77159"
       y2="120.52689"
       gradientTransform="matrix(0.76019498,0,0,0.73201076,81.23326,23.91503)" />
    <linearGradient
       inkscape:collect="always"
       xlink:href="#linearGradient6250"
       id="linearGradient6420"
       gradientUnits="userSpaceOnUse"
       x1="77.565217"
       y1="120.52689"
       x2="143.77159"
       y2="120.52689"
       gradientTransform="matrix(0.76019498,0,0,0.73201076,81.23326,23.91503)" />
    <linearGradient
       inkscape:collect="always"
       xlink:href="#linearGradient6250"
       id="linearGradient6422"
       gradientUnits="userSpaceOnUse"
       x1="77.565217"
       y1="120.52689"
       x2="143.77159"
       y2="120.52689"
       gradientTransform="matrix(0.76019498,0,0,0.73201076,81.23326,23.91503)" />
    <linearGradient
       inkscape:collect="always"
       xlink:href="#linearGradient6250"
       id="linearGradient6424"
       gradientUnits="userSpaceOnUse"
       x1="77.565217"
       y1="120.52689"
       x2="143.77159"
       y2="120.52689"
       gradientTransform="matrix(0.76019498,0,0,0.73201076,81.23326,23.91503)" />
    <linearGradient
       inkscape:collect="always"
       xlink:href="#linearGradient6250"
       id="linearGradient6426"
       gradientUnits="userSpaceOnUse"
       x1="77.565217"
       y1="120.52689"
       x2="143.77159"
       y2="120.52689"
       gradientTransform="matrix(0.76019498,0,0,0.73201076,81.23326,23.91503)" />
  </defs>
  <sodipodi:namedview
     id="base"
     pagecolor="#ffffff"
     bordercolor="#666666"
     borderopacity="1.0"
     inkscape:pageopacity="0.0"
     inkscape:pageshadow="2"
     inkscape:zoom="0.4507716"
     inkscape:cx="361.3557"
     inkscape:cy="612.16971"
     inkscape:document-units="mm"
     inkscape:current-layer="layer1"
     showgrid="false"
     inkscape:window-width="1024"
     inkscape:window-height="705"
     inkscape:window-x="-8"
     inkscape:window-y="-8"
     inkscape:window-maximized="1" />
  <metadata
     id="metadata5">
    <rdf:RDF>
      <cc:Work
         rdf:about="">
        <dc:format>image/svg+xml</dc:format>
        <dc:type
           rdf:resource="http://purl.org/dc/dcmitype/StillImage" />
        <dc:title></dc:title>
      </cc:Work>
    </rdf:RDF>
  </metadata>
  <g
     inkscape:label="Layer 1"
     inkscape:groupmode="layer"
     id="layer1">
    <flowRoot
       xml:space="preserve"
       id="flowRoot4518"
       style="font-style:normal;font-variant:normal;font-weight:bold;font-stretch:normal;font-size:64px;line-height:1.25;font-family:Impact;-inkscape-font-specification:'Impact Bold';letter-spacing:0px;word-spacing:0px;fill:#640064;fill-opacity:1;stroke:none"
       transform="matrix(0.58683259,0,0,0.6042923,-21.85196,35.904619)"><flowRegion
         id="flowRegion4520"
         style="font-style:normal;font-variant:normal;font-weight:bold;font-stretch:normal;font-size:64px;font-family:Impact;-inkscape-font-specification:'Impact Bold';fill:#640064;fill-opacity:1"><rect
           id="rect4522"
           width="657.14288"
           height="251.42857"
           x="71.428574"
           y="125.37683"
           style="font-style:normal;font-variant:normal;font-weight:bold;font-stretch:normal;font-size:64px;font-family:Impact;-inkscape-font-specification:'Impact Bold';fill:#640064;fill-opacity:1" /></flowRegion><flowPara
         id="flowPara4524">DIgiART</flowPara></flowRoot>    <flowRoot
       xml:space="preserve"
       id="flowRoot4526"
       style="fill:black;fill-opacity:1;stroke:none;font-family:Arial;font-style:normal;font-weight:normal;font-size:40px;line-height:1.25;letter-spacing:0px;word-spacing:0px;-inkscape-font-specification:Arial;font-stretch:normal;font-variant:normal;"><flowRegion
         id="flowRegion4528"
         style="-inkscape-font-specification:Arial;font-family:Arial;font-weight:normal;font-style:normal;font-stretch:normal;font-variant:normal;"><rect
           id="rect4530"
           width="271.42856"
           height="100"
           x="48.57143"
           y="153.94826"
           style="-inkscape-font-specification:Arial;font-family:Arial;font-weight:normal;font-style:normal;font-stretch:normal;font-variant:normal;" /></flowRegion><flowPara
         id="flowPara4532"></flowPara></flowRoot>    <flowRoot
       xml:space="preserve"
       id="flowRoot4534"
       style="fill:black;fill-opacity:1;stroke:none;font-family:Arial;font-style:normal;font-weight:normal;font-size:40px;line-height:1.25;letter-spacing:0px;word-spacing:0px;-inkscape-font-specification:Arial;font-stretch:normal;font-variant:normal;"><flowRegion
         id="flowRegion4536"
         style="-inkscape-font-specification:Arial;font-family:Arial;font-weight:normal;font-style:normal;font-stretch:normal;font-variant:normal;"><rect
           id="rect4538"
           width="262.85715"
           height="154.28572"
           x="42.857143"
           y="93.948257"
           style="-inkscape-font-specification:Arial;font-family:Arial;font-weight:normal;font-style:normal;font-stretch:normal;font-variant:normal;" /></flowRegion><flowPara
         id="flowPara4540"></flowPara></flowRoot>    <flowRoot
       xml:space="preserve"
       id="flowRoot4542"
       style="fill:black;fill-opacity:1;stroke:none;font-family:sans-serif;font-style:normal;font-weight:bold;font-size:40px;line-height:1.25;letter-spacing:0px;word-spacing:0px;-inkscape-font-specification:'sans-serif Bold';font-stretch:normal;font-variant:normal;"><flowRegion
         id="flowRegion4544"
         style="-inkscape-font-specification:'sans-serif Bold';font-family:sans-serif;font-weight:bold;font-style:normal;font-stretch:normal;font-variant:normal;"><rect
           id="rect4546"
           width="454.28571"
           height="237.14285"
           x="68.571426"
           y="73.948257"
           style="-inkscape-font-specification:'sans-serif Bold';font-family:sans-serif;font-weight:bold;font-style:normal;font-stretch:normal;font-variant:normal;" /></flowRegion><flowPara
         id="flowPara4548"></flowPara></flowRoot>    <g
       sodipodi:type="inkscape:box3d"
       id="g4608"
       inkscape:perspectiveID="#perspective4606"
       inkscape:corner0="0.34502928 : 0.099236851 : 0 : 1"
       inkscape:corner7="-0.23877067 : 0.042351067 : 0.25 : 1"
       style="stroke:url(#linearGradient6252);stroke-opacity:1">
      <path
         sodipodi:type="inkscape:box3dside"
         id="path4610"
         style="fill:#353564;fill-rule:evenodd;stroke:url(#linearGradient6416);stroke-width:0.74596977;stroke-linejoin:round;stroke-opacity:1"
         inkscape:box3dsidetype="6"
         d="m 140.57804,105.55015 v 30.95918 l 9.7056,-1.28325 v -26.10674 z"
         points="140.57804,136.50933 150.28364,135.22608 150.28364,109.11934 140.57804,105.55015 " />
      <path
         sodipodi:type="inkscape:box3dside"
         id="path4618"
         style="fill:#afafde;fill-rule:evenodd;stroke:url(#linearGradient6418);stroke-width:0.74596977;stroke-linejoin:round;stroke-opacity:1"
         inkscape:box3dsidetype="13"
         d="m 140.57804,136.50933 45.51255,2.98383 4.05702,-2.76176 -39.86397,-1.50532 z"
         points="186.09059,139.49316 190.14761,136.7314 150.28364,135.22608 140.57804,136.50933 " />
      <path
         sodipodi:type="inkscape:box3dside"
         id="path4620"
         style="fill:#e9e9ff;fill-rule:evenodd;stroke:url(#linearGradient6420);stroke-width:0.74596977;stroke-linejoin:round;stroke-opacity:1"
         inkscape:box3dsidetype="11"
         d="M 150.28364,109.11934 190.14761,95.552802 V 136.7314 l -39.86397,-1.50532 z"
         points="190.14761,95.552802 190.14761,136.7314 150.28364,135.22608 150.28364,109.11934 " />
      <path
         sodipodi:type="inkscape:box3dside"
         id="path4612"
         style="fill:#4d4d9f;fill-rule:evenodd;stroke:url(#linearGradient6422);stroke-width:0.74596977;stroke-linejoin:round;stroke-opacity:1"
         inkscape:box3dsidetype="5"
         d="m 140.57804,105.55015 45.51255,-20.759296 4.05702,10.761948 -39.86397,13.566538 z"
         points="186.09059,84.790854 190.14761,95.552802 150.28364,109.11934 140.57804,105.55015 " />
      <path
         sodipodi:type="inkscape:box3dside"
         id="path4616"
         style="fill:#d7d7ff;fill-rule:evenodd;stroke:url(#linearGradient6424);stroke-width:0.74596977;stroke-linejoin:round;stroke-opacity:1"
         inkscape:box3dsidetype="14"
         d="m 186.09059,84.790854 v 54.702306 l 4.05702,-2.76176 V 95.552802 Z"
         points="186.09059,139.49316 190.14761,136.7314 190.14761,95.552802 186.09059,84.790854 " />
      <path
         sodipodi:type="inkscape:box3dside"
         id="path4614"
         style="fill:#8686bf;fill-rule:evenodd;stroke:url(#linearGradient6426);stroke-width:0.74596977;stroke-linejoin:round;stroke-opacity:1"
         inkscape:box3dsidetype="3"
         d="m 140.57804,105.55015 45.51255,-20.759296 v 54.702306 l -45.51255,-2.98383 z"
         points="186.09059,84.790854 186.09059,139.49316 140.57804,136.50933 140.57804,105.55015 " />
    </g>
    <g
       sodipodi:type="inkscape:box3d"
       id="g4650"
       inkscape:perspectiveID="#perspective4606"
       inkscape:corner0="1.1296297 : -0.017999994 : 0 : 1"
       inkscape:corner7="0.090785933 : -0.01964634 : 0.25 : 1">
      <path
         sodipodi:type="inkscape:box3dside"
         id="path4652"
         style="fill:#353564;fill-rule:evenodd;stroke:none;stroke-width:0.74596977;stroke-linejoin:round"
         inkscape:box3dsidetype="6"
         d="m 118.71418,155.82019 v 0.56589 l 8.80249,-2.94836 v -0.50644 z"
         points="118.71418,156.38608 127.51667,153.43772 127.51667,152.93128 118.71418,155.82019 " />
      <path
         sodipodi:type="inkscape:box3dside"
         id="path4660"
         style="fill:#afafde;fill-rule:evenodd;stroke:none;stroke-width:0.74596977;stroke-linejoin:round"
         inkscape:box3dsidetype="13"
         d="m 118.71418,156.38608 35.69611,22.63567 8.96687,-9.45336 -35.86049,-16.13067 z"
         points="154.41029,179.02175 163.37716,169.56839 127.51667,153.43772 118.71418,156.38608 " />
      <path
         sodipodi:type="inkscape:box3dside"
         id="path4662"
         style="fill:#e9e9ff;fill-rule:evenodd;stroke:none;stroke-width:0.74596977;stroke-linejoin:round"
         inkscape:box3dsidetype="11"
         d="m 127.51667,152.93128 35.86049,15.73828 v 0.89883 l -35.86049,-16.13067 z"
         points="163.37716,168.66956 163.37716,169.56839 127.51667,153.43772 127.51667,152.93128 " />
      <path
         sodipodi:type="inkscape:box3dside"
         id="path4654"
         style="fill:#4d4d9f;fill-rule:evenodd;stroke:none;stroke-width:0.74596977;stroke-linejoin:round"
         inkscape:box3dsidetype="5"
         d="m 118.71418,155.82019 35.69611,22.09672 8.96687,-9.24735 -35.86049,-15.73828 z"
         points="154.41029,177.91691 163.37716,168.66956 127.51667,152.93128 118.71418,155.82019 " />
      <path
         sodipodi:type="inkscape:box3dside"
         id="path4658"
         style="fill:#d7d7ff;fill-rule:evenodd;stroke:none;stroke-width:0.74596977;stroke-linejoin:round"
         inkscape:box3dsidetype="14"
         d="m 154.41029,177.91691 v 1.10484 l 8.96687,-9.45336 v -0.89883 z"
         points="154.41029,179.02175 163.37716,169.56839 163.37716,168.66956 154.41029,177.91691 " />
      <path
         sodipodi:type="inkscape:box3dside"
         id="path4656"
         style="fill:#8686bf;fill-rule:evenodd;stroke:none;stroke-width:0.74596977;stroke-linejoin:round"
         inkscape:box3dsidetype="3"
         d="m 118.71418,155.82019 35.69611,22.09672 v 1.10484 l -35.69611,-22.63567 z"
         points="154.41029,177.91691 154.41029,179.02175 118.71418,156.38608 118.71418,155.82019 " />
    </g>
    <path
       style="fill:none;stroke:#000000;stroke-width:0.19737116px;stroke-linecap:butt;stroke-linejoin:miter;stroke-opacity:1"
       d="m 162.06674,137.96683 c 0,9.02282 0.4462,9.45248 0.4462,9.45248 l -14.72473,1.71864 14.27853,-2.57796 10.26262,8.16351 -10.70883,-7.73385 12.04743,1.28897"
       id="path4678"
       inkscape:connector-curvature="0" />
    <path
       sodipodi:type="star"
       style="fill:#800080;stroke-width:0.26458332"
       id="path4714"
       sodipodi:sides="5"
       sodipodi:cx="57.521736"
       sodipodi:cy="95.67392"
       sodipodi:r1="14.720795"
       sodipodi:r2="40.762791"
       sodipodi:arg1="1.1606689"
       sodipodi:arg2="-0.22544029"
       inkscape:flatsided="false"
       inkscape:rounded="0"
       inkscape:randomized="0"
       d="M 63.391303,109.17392 97.253056,86.561988 46.496269,105.42794 78.465352,130.64491 44.838057,88.202235 30.734282,126.39911 60.708258,81.302146 20.022564,79.692144 72.174794,94.26336 61.133427,55.071447 Z"
       inkscape:transform-center-x="0.6585645"
       inkscape:transform-center-y="0.92940082"
       transform="matrix(0.76019496,0,0,0.73201074,117.82178,47.116586)" />
    <path
       style="fill:#ffc000;fill-opacity:1;stroke-width:0.43785179"
       d="m 147.44844,109.17038 c -6.67305,-1.80192 -12.09441,-3.31221 -12.04743,-3.3562 0.23553,-0.2206 27.35024,0.85585 27.63174,1.09698 0.26658,0.22838 -2.12869,4.19178 -3.1766,5.25622 -0.15118,0.15358 -5.73465,-1.19507 -12.40771,-2.997 z"
       id="path4716"
       inkscape:connector-curvature="0" />
    <path
       style="fill:#11f603;fill-opacity:1;stroke-width:0.43785179"
       d="m 164.46372,132.68574 c -5.63028,-4.26399 -10.39718,-7.9033 -10.5931,-8.08737 -0.19594,-0.18406 0.90841,-0.77699 2.45411,-1.31761 1.54568,-0.54063 3.03631,-1.06476 3.3125,-1.16473 0.27619,-0.0999 3.5723,3.55159 7.32469,8.11459 3.7524,4.563 7.12269,8.6359 7.48955,9.0509 1.90834,2.15876 -0.71952,0.42334 -9.98775,-6.59578 z"
       id="path4718"
       inkscape:connector-curvature="0" />
    <path
       style="fill:#ff0046;fill-opacity:1;stroke-width:0.43785179"
       d="m 142.61658,136.27128 c 0.17025,-0.41356 2.30848,-5.96428 4.75163,-12.33498 2.44317,-6.37068 4.50274,-11.64144 4.57684,-11.7128 0.16533,-0.15921 4.2897,4.86048 4.2897,5.22091 0,0.41786 -13.37014,19.57876 -13.66172,19.57876 -0.1463,0 -0.1267,-0.33835 0.0436,-0.75189 z"
       id="path4720"
       inkscape:connector-curvature="0" />
    <path
       style="fill:#001264;fill-opacity:1;stroke-width:0.43785179"
       d="m 168.89759,114.96416 -3.17731,-0.80614 -0.27345,-4.35737 c -0.1504,-2.39656 -0.37694,-7.83761 -0.50342,-12.091222 l -0.22997,-7.733862 3.7968,12.661874 c 2.08825,6.96402 3.74457,12.76783 3.68073,12.89735 -0.0638,0.12953 -1.54585,-0.12726 -3.29338,-0.57063 z"
       id="path4722"
       inkscape:connector-curvature="0" />
    <path
       style="fill:#04ffff;fill-opacity:1;stroke-width:0.43785179"
       d="m 158.54834,119.50216 -1.82561,-2.09965 1.55267,-2.22011 c 0.85397,-1.22105 1.71169,-2.2201 1.90604,-2.2201 0.19435,0 1.36872,0.29035 2.60972,0.64523 2.422,0.69258 2.81382,1.35246 2.81382,4.73882 0,1.27174 -0.1856,1.47229 -1.89636,2.04914 -1.04299,0.35168 -2.21997,0.76698 -2.6155,0.92287 -0.50868,0.20048 -1.25347,-0.33106 -2.54478,-1.8162 z"
       id="path4724"
       inkscape:connector-curvature="0" />
    <path
       style="fill:#483737;stroke-width:0.43785179"
       d="m 139.9484,168.77058 c -7.60773,-4.72827 -15.43238,-9.58615 -17.38809,-10.79529 l -3.55586,-2.19845 4.20702,-1.35109 4.207,-1.35109 17.64309,7.73221 c 9.70372,4.25272 17.71782,7.78633 17.80914,7.85246 0.28217,0.20439 -8.1699,8.72934 -8.64386,8.71839 -0.24541,-0.006 -6.6707,-3.87887 -14.27844,-8.60714 z"
       id="path4740"
       inkscape:connector-curvature="0" />
  </g>
</svg>
