<?xml version="1.0" encoding="UTF-8" standalone="no"?>
<!-- Created with Inkscape (http://www.inkscape.org/) -->

<svg
   xmlns:osb="http://www.openswatchbook.org/uri/2009/osb"
   xmlns:dc="http://purl.org/dc/elements/1.1/"
   xmlns:cc="http://creativecommons.org/ns#"
   xmlns:rdf="http://www.w3.org/1999/02/22-rdf-syntax-ns#"
   xmlns:svg="http://www.w3.org/2000/svg"
   xmlns="http://www.w3.org/2000/svg"
   xmlns:xlink="http://www.w3.org/1999/xlink"
   xmlns:sodipodi="http://sodipodi.sourceforge.net/DTD/sodipodi-0.dtd"
   xmlns:inkscape="http://www.inkscape.org/namespaces/inkscape"
   width="300"
   height="300"
   viewBox="0 0 79.374998 79.375002"
   version="1.1"
   id="svg8"
   inkscape:version="0.92.4 (5da689c313, 2019-01-14)"
   sodipodi:docname="gears.svg">
  <defs
     id="defs2">
    <linearGradient
       inkscape:collect="always"
       id="linearGradient6355">
      <stop
         style="stop-color:#ff6600;stop-opacity:1;"
         offset="0"
         id="stop6351" />
      <stop
         style="stop-color:#ff6600;stop-opacity:0;"
         offset="1"
         id="stop6353" />
    </linearGradient>
    <linearGradient
       id="linearGradient6283"
       osb:paint="solid">
      <stop
         style="stop-color:#ff6600;stop-opacity:1;"
         offset="0"
         id="stop6281" />
    </linearGradient>
    <linearGradient
       inkscape:collect="always"
       id="linearGradient6243">
      <stop
         style="stop-color:#ff0025;stop-opacity:1;"
         offset="0"
         id="stop6239" />
      <stop
         style="stop-color:#ff0025;stop-opacity:0;"
         offset="1"
         id="stop6241" />
    </linearGradient>
    <linearGradient
       id="linearGradient6153"
       osb:paint="solid">
      <stop
         style="stop-color:#000000;stop-opacity:1;"
         offset="0"
         id="stop6151" />
    </linearGradient>
    <linearGradient
       id="linearGradient6067"
       osb:paint="solid">
      <stop
         style="stop-color:#2b0000;stop-opacity:1;"
         offset="0"
         id="stop6065" />
    </linearGradient>
    <linearGradient
       inkscape:collect="always"
       xlink:href="#linearGradient6243"
       id="linearGradient6247"
       x1="109.52238"
       y1="180.88663"
       x2="252.19668"
       y2="180.88663"
       gradientUnits="userSpaceOnUse" />
    <radialGradient
       inkscape:collect="always"
       xlink:href="#linearGradient6355"
       id="radialGradient6357"
       cx="87.369308"
       cy="88.038445"
       fx="87.369308"
       fy="88.038445"
       r="71.428393"
       gradientTransform="matrix(-0.01000257,1.1000028,-0.99928274,-0.0090867,176.21852,-7.2680603)"
       gradientUnits="userSpaceOnUse" />
  </defs>
  <sodipodi:namedview
     id="base"
     pagecolor="#ffffff"
     bordercolor="#666666"
     borderopacity="1.0"
     inkscape:pageopacity="0.0"
     inkscape:pageshadow="2"
     inkscape:zoom="1.4"
     inkscape:cx="146.11956"
     inkscape:cy="144.98604"
     inkscape:document-units="mm"
     inkscape:current-layer="layer1"
     showgrid="false"
     units="px"
     showguides="false"
     inkscape:snap-grids="false"
     inkscape:snap-to-guides="false"
     inkscape:snap-object-midpoints="false"
     inkscape:snap-others="false"
     inkscape:object-nodes="false"
     inkscape:snap-nodes="false"
     inkscape:snap-global="false"
     inkscape:pagecheckerboard="false"
     borderlayer="false"
     inkscape:window-width="1024"
     inkscape:window-height="705"
     inkscape:window-x="-8"
     inkscape:window-y="-8"
     inkscape:window-maximized="1">
    <inkscape:grid
       type="xygrid"
       id="grid847" />
  </sodipodi:namedview>
  <metadata
     id="metadata5">
    <rdf:RDF>
      <cc:Work
         rdf:about="">
        <dc:format>image/svg+xml</dc:format>
        <dc:type
           rdf:resource="http://purl.org/dc/dcmitype/StillImage" />
        <dc:title></dc:title>
      </cc:Work>
    </rdf:RDF>
  </metadata>
  <g
     inkscape:label="Layer 1"
     inkscape:groupmode="layer"
     id="layer1"
     transform="translate(0,-217.62498)">
    <path
       sodipodi:type="star"
       style="fill:#04a5ff;fill-opacity:1;stroke:#000000;stroke-width:1;stroke-miterlimit:4;stroke-dasharray:none;stroke-opacity:1"
       id="path827"
       sodipodi:sides="8"
       sodipodi:cx="25.135416"
       sodipodi:cy="251.07587"
       sodipodi:r1="23.1192"
       sodipodi:r2="17.686188"
       sodipodi:arg1="0.77961788"
       sodipodi:arg2="1.172317"
       inkscape:flatsided="false"
       inkscape:rounded="0.75"
       inkscape:randomized="0"
       d="m 41.57738,267.32884 c -5.050866,5.1096 -2.957669,-2.74023 -9.579418,0.0475 -6.621748,2.78777 0.45562,6.77677 -6.728911,6.8183 -7.184532,0.0415 -0.15375,-4.02902 -6.807285,-6.74006 -6.653533,-2.71103 -4.46973,5.11408 -9.5793257,0.0632 -5.1095965,-5.05087 2.7402327,-2.95767 -0.047537,-9.57942 -2.7877688,-6.62175 -6.7767725,0.45562 -6.8183013,-6.72891 -0.041529,-7.18453 4.0290245,-0.15375 6.7400579,-6.80728 2.7110326,-6.65354 -5.1140734,-4.46973 -0.063208,-9.57933 5.0508658,-5.1096 2.9576688,2.74023 9.5794178,-0.0475 6.621748,-2.78776 -0.45562,-6.77677 6.728911,-6.8183 7.184532,-0.0415 0.153751,4.02903 6.807285,6.74006 6.653533,2.71103 4.46973,-5.11407 9.579326,-0.0632 5.109596,5.05087 -2.740233,2.95767 0.04754,9.57942 2.787769,6.62175 6.776773,-0.45562 6.818302,6.72891 0.04153,7.18453 -4.029025,0.15375 -6.740058,6.80729 -2.711033,6.65353 5.114073,4.46973 0.06321,9.57932 z"
       transform="matrix(0.84635834,0,0,0.84619762,1.852304,28.453616)"
       sodipodi:insensitive="true" />
    <path
       transform="matrix(0.84635834,0,0,0.84619762,26.609744,53.022068)"
       d="m 41.57738,267.32884 c -5.050866,5.1096 -2.957669,-2.74023 -9.579418,0.0475 -6.621748,2.78777 0.45562,6.77677 -6.728911,6.8183 -7.184532,0.0415 -0.15375,-4.02902 -6.807285,-6.74006 -6.653533,-2.71103 -4.46973,5.11408 -9.5793257,0.0632 -5.1095965,-5.05087 2.7402327,-2.95767 -0.047537,-9.57942 -2.7877688,-6.62175 -6.7767725,0.45562 -6.8183013,-6.72891 -0.041529,-7.18453 4.0290245,-0.15375 6.7400579,-6.80728 2.7110326,-6.65354 -5.1140734,-4.46973 -0.063208,-9.57933 5.0508658,-5.1096 2.9576688,2.74023 9.5794178,-0.0475 6.621748,-2.78776 -0.45562,-6.77677 6.728911,-6.8183 7.184532,-0.0415 0.153751,4.02903 6.807285,6.74006 6.653533,2.71103 4.46973,-5.11407 9.579326,-0.0632 5.109596,5.05087 -2.740233,2.95767 0.04754,9.57942 2.787769,6.62175 6.776773,-0.45562 6.818302,6.72891 0.04153,7.18453 -4.029025,0.15375 -6.740058,6.80729 -2.711033,6.65353 5.114073,4.46973 0.06321,9.57932 z"
       inkscape:randomized="0"
       inkscape:rounded="0.75"
       inkscape:flatsided="false"
       sodipodi:arg2="1.172317"
       sodipodi:arg1="0.77961788"
       sodipodi:r2="17.686188"
       sodipodi:r1="23.1192"
       sodipodi:cy="251.07587"
       sodipodi:cx="25.135416"
       sodipodi:sides="8"
       id="path835"
       style="fill:#04a5ff;fill-opacity:1;stroke:#000000;stroke-width:1;stroke-miterlimit:4;stroke-dasharray:none;stroke-opacity:1"
       sodipodi:type="star" />
    <ellipse
       style="fill:#04a5ff;fill-opacity:1;stroke:#000000;stroke-width:1;stroke-miterlimit:4;stroke-dasharray:none;stroke-opacity:1"
       id="path841"
       cx="23.125874"
       cy="240.91342"
       rx="6.4255953"
       ry="8.0319939" />
    <ellipse
       style="fill:#04a5ff;fill-opacity:1;stroke:#000000;stroke-width:1;stroke-miterlimit:4;stroke-dasharray:none;stroke-opacity:1"
       id="path4558"
       cx="23.125874"
       cy="240.91342"
       rx="2.7403271"
       ry="3.7797618" />
    <ellipse
       ry="3.7797618"
       rx="2.7403271"
       cy="265.48187"
       cx="47.883312"
       id="ellipse4560"
       style="fill:#04a5ff;fill-opacity:1;stroke:#000000;stroke-width:1;stroke-miterlimit:4;stroke-dasharray:none;stroke-opacity:1" />
    <path
       style="fill:#000000;fill-opacity:1;stroke:#000000;stroke-width:2.69966269;stroke-miterlimit:4;stroke-dasharray:none;stroke-opacity:1"
       d="m 83.135308,98.128107 c 3.170671,3.375023 8.255133,1.72349 11.028876,-3.582397 1.452575,-2.778629 1.615581,-10.096327 0.281961,-12.657855 -3.874594,-7.442063 -10.399068,-7.652519 -13.673904,-0.441072 -2.42806,5.346782 -1.388044,12.688449 2.363067,16.681324 z"
       id="path4564"
       inkscape:connector-curvature="0"
       transform="matrix(0.26458333,0,0,0.26458333,0,217.62498)" />
    <path
       style="fill:#000000;fill-opacity:1;stroke:#000000;stroke-width:0.71428573;stroke-miterlimit:4;stroke-dasharray:none;stroke-opacity:1"
       d="m 46.753656,268.15649 c -0.992481,-1.05645 -1.267653,-2.99893 -0.625228,-4.4136 0.866468,-1.90802 2.592734,-1.85234 3.617888,0.1167 0.352854,0.67774 0.309724,2.61388 -0.0746,3.34906 -0.733888,1.40385 -2.079151,1.84082 -2.918058,0.94784 z"
       id="path4566"
       inkscape:connector-curvature="0" />
    <path
       style="fill:#00ffff;fill-opacity:1;stroke:#000000;stroke-width:2.69966269;stroke-miterlimit:4;stroke-dasharray:none;stroke-opacity:1"
       d="m 172.97671,251.17357 c -1.08928,-1.08927 -1.42857,-2.38095 -1.42857,-5.43847 0,-2.80593 -0.47104,-4.84798 -1.56884,-6.80125 -2.74589,-4.88565 -11.40563,-9.18885 -18.4916,-9.18885 -4.20569,0 -6.53161,1.07635 -9.90111,4.58191 -3.7015,3.85097 -5.13977,3.50059 -11.26417,-2.74411 -2.86157,-2.91777 -5.20286,-5.7999 -5.20286,-6.40472 0,-0.60483 1.4328,-2.71293 3.18399,-4.68468 3.90181,-4.39323 4.93501,-7.7441 3.96497,-12.85912 -0.91372,-4.81801 -4.66678,-11.84465 -7.46257,-13.97175 -2.50748,-1.90775 -4.21395,-2.39756 -9.63155,-2.76461 -2.55392,-0.17303 -4.16982,-0.66735 -4.74274,-1.45087 -1.88985,-2.58453 -2.05125,-12.78814 -0.25642,-16.21127 0.43558,-0.83075 1.98725,-1.25104 5.56342,-1.50691 7.93149,-0.56749 12.03204,-4.15209 15.16435,-13.25631 2.51173,-7.30047 1.72407,-11.30516 -3.27459,-16.64913 -3.9609,-4.23453 -3.75974,-5.17472 2.46936,-11.54109 5.53155,-5.65346 6.84367,-5.92458 10.90695,-2.25365 5.66367,5.11678 11.19619,5.76973 19.11483,2.25591 7.80689,-3.46422 10.71429,-7.34699 10.71429,-14.30871 0,-5.94995 0.77069,-6.54264 8.88939,-6.83621 8.84007,-0.31966 10.39447,0.49387 10.40031,5.44321 0.006,5.53119 1.16817,8.38642 4.66391,11.46349 5.53948,4.87604 15.0731,7.29661 20.5052,5.20622 1.07734,-0.41458 3.4025,-2.08455 5.16703,-3.71103 4.07712,-3.75816 5.38718,-3.49784 11.08845,2.20343 5.19054,5.19054 5.87937,7.20389 3.37615,9.86791 -3.90773,4.15871 -5.51901,7.34715 -5.51901,10.92109 0,6.65405 4.36564,15.67667 8.95876,18.51537 1.55325,0.95996 4.19168,1.63739 7.43696,1.90946 3.00094,0.25159 5.36699,0.82812 5.86596,1.42935 1.19091,1.43495 1.65112,11.65813 0.66,14.66126 -0.81262,2.46228 -0.88121,2.49694 -5.74705,2.90488 -2.70854,0.22707 -5.88408,0.90902 -7.05677,1.51544 -6.22164,3.21734 -11.52304,15.78177 -9.38823,22.25031 0.46761,1.41687 2.26259,4.16641 3.98885,6.11008 1.72627,1.94368 3.13866,3.95715 3.13866,4.47438 0,2.43821 -8.05198,10.827 -11.60812,12.09365 -0.85876,0.30589 -2.36639,-0.54506 -4.80869,-2.71417 -6.04071,-5.36501 -11.30177,-5.86688 -19.70334,-1.8796 -7.55656,3.58626 -10.29589,7.70797 -10.30443,15.5045 -0.004,3.20059 -0.22157,3.73449 -1.82331,4.46429 -1.00063,0.45592 -4.69706,0.82894 -8.21429,0.82894 -5.44258,0 -6.60771,-0.21275 -7.82353,-1.42857 z m 10.82253,-54.30386 c 3.67755,-1.02146 7.42463,-5.4369 8.90049,-10.48804 1.00627,-3.44397 1.07978,-4.89477 0.43898,-8.66384 -1.36667,-8.03862 -6.04368,-12.96749 -12.30486,-12.96749 -6.63017,0 -11.35848,5.59411 -11.96444,14.15525 -0.59148,8.35658 2.05284,14.25814 7.65727,17.08941 3.63735,1.83753 3.75515,1.8517 7.27256,0.87471 z"
       id="path4595"
       inkscape:connector-curvature="0"
       transform="matrix(0.26458333,0,0,0.26458333,0,217.62498)" />
    <path
       style="fill:#666666;fill-opacity:1;stroke:#000000;stroke-width:2.69966269;stroke-miterlimit:4;stroke-dasharray:none;stroke-opacity:1"
       d="m 79.405279,158.31643 c -1.089275,-1.08928 -1.428572,-2.38095 -1.428572,-5.43847 0,-2.80593 -0.471036,-4.84798 -1.568839,-6.80126 -2.745887,-4.88565 -11.405632,-9.18885 -18.491594,-9.18885 -4.205698,0 -6.531616,1.07636 -9.901115,4.58192 -3.701503,3.85096 -5.139765,3.50058 -11.264165,-2.74411 -2.861572,-2.91777 -5.202858,-5.7999 -5.202858,-6.40473 0,-0.60482 1.432795,-2.71293 3.183988,-4.68468 3.901807,-4.39322 4.935009,-7.74409 3.964963,-12.85912 -0.913716,-4.818 -4.666771,-11.84464 -7.462566,-13.97174 -2.507477,-1.90775 -4.21395,-2.397564 -9.631551,-2.764614 -2.553917,-0.173028 -4.169814,-0.66735 -4.742737,-1.450871 -1.889855,-2.584529 -2.051253,-12.788134 -0.256426,-16.211265 0.435582,-0.830751 1.987254,-1.251038 5.563421,-1.506912 7.931496,-0.567495 12.032041,-4.152095 15.164352,-13.256315 2.511727,-7.300462 1.724076,-11.305153 -3.274589,-16.649129 -3.960901,-4.234525 -3.759737,-5.174714 2.469355,-11.54109 5.53155,-5.653461 6.843675,-5.924578 10.906958,-2.253646 5.663668,5.116783 11.196188,5.769726 19.114832,2.255914 7.806887,-3.464222 10.714285,-7.346994 10.714285,-14.308716 0,-5.949951 0.77069,-6.542635 8.889393,-6.836208 8.840065,-0.319658 10.394465,0.49387 10.400307,5.443212 0.0064,5.53119 1.168172,8.386418 4.663909,11.46349 5.53948,4.87604 15.07311,7.296606 20.5052,5.206218 1.07734,-0.414585 3.4025,-2.084548 5.16703,-3.711029 4.07713,-3.758166 5.38718,-3.497839 11.08845,2.203426 5.19054,5.190546 5.87938,7.203896 3.37615,9.867913 -3.90772,4.158712 -5.51901,7.347152 -5.51901,10.921087 0,6.654048 4.36564,15.676669 8.95876,18.515372 1.55325,0.959962 4.19168,1.637387 7.43696,1.909459 3.00094,0.251587 5.36699,0.82812 5.86597,1.42935 1.1909,1.434956 1.65111,11.658133 0.65999,14.661262 -0.81262,2.462278 -0.88121,2.496942 -5.74705,2.904878 -2.70854,0.227072 -5.88408,0.909022 -7.05677,1.515443 -5.05292,2.612971 -9.40877,10.908381 -9.73964,18.548491 -0.17241,3.98095 -0.30183,4.25222 -2.46206,5.16053 -2.92307,1.22906 -10.52564,8.81318 -11.7474,11.71889 -0.88703,2.10963 -1.16947,2.24035 -5.19627,2.40494 -5.16093,0.21094 -12.35303,3.3521 -15.7993,6.90036 -2.666911,2.74582 -3.734947,5.91684 -3.740633,11.10594 -0.0036,3.20059 -0.221564,3.73448 -1.823307,4.46428 -1.000629,0.45593 -4.697057,0.82895 -8.214286,0.82895 -5.442583,0 -6.607717,-0.21275 -7.823535,-1.42857 z M 96.548136,118.53111 C 112.03238,111.56724 118.44098,88.490812 109.79714,70.823438 104.22169,59.427624 92.160264,53.311126 81.420465,56.433271 64.056746,61.481041 55.601394,85.892023 64.766252,104.51473 c 3.79022,7.70161 9.515769,12.92807 16.781884,15.31905 3.036337,0.99913 11.520143,0.26236 15,-1.30267 z"
       id="path4597"
       inkscape:connector-curvature="0"
       transform="matrix(0.26458333,0,0,0.26458333,0,217.62498)" />
    <path
       style="fill:url(#linearGradient6247);fill-opacity:1;stroke:#000000;stroke-width:2.69966269;stroke-miterlimit:4;stroke-dasharray:none;stroke-opacity:1"
       d="m 175.61472,250.71988 c -1.55537,-0.45914 -2.63801,-3.0578 -2.63801,-6.33203 0,-4.73758 -2.62706,-8.78546 -7.85715,-12.10658 -5.58296,-3.54521 -14.28298,-5.01681 -19.0174,-3.21679 -1.08215,0.41144 -3.34589,2.01858 -5.03054,3.57143 -1.68465,1.55286 -3.26214,2.82337 -3.50555,2.82337 -0.75605,0 -10.30365,-9.47914 -10.30365,-10.22978 0,-0.39032 1.24597,-2.34652 2.76883,-4.3471 5.27521,-6.93005 5.50175,-12.13344 0.92286,-21.19754 -3.55353,-7.03437 -6.23588,-9.09092 -13.27725,-10.17963 -3.30324,-0.51073 -5.74269,-1.26878 -6.14847,-1.91058 -0.85291,-1.34903 -0.88334,-11.44547 -0.0385,-12.77984 0.34878,-0.55088 2.59936,-1.27037 5.00128,-1.59885 8.3685,-1.14447 12.38252,-4.55008 15.5063,-13.15601 2.94989,-8.12685 2.19668,-12.88987 -3.05475,-19.31709 -1.31701,-1.61189 -2.39456,-3.1665 -2.39456,-3.45468 0,-1.11281 8.86235,-9.68604 10.01269,-9.68604 0.66816,0 2.60447,1.09966 4.30291,2.44368 5.71441,4.52197 12.31381,5.06485 20.01694,1.64661 7.5888,-3.36751 11.38174,-8.24613 11.38174,-14.6396 0,-5.45802 0.76098,-6.00937 8.46297,-6.13173 7.58123,-0.12045 7.93761,0.12414 7.95467,5.4595 0.0124,3.88953 1.76239,7.7975 4.76695,10.64544 4.65376,4.41119 14.5937,7.24137 21.12755,6.01561 1.29858,-0.24361 3.916,-1.72788 5.81651,-3.29836 1.90051,-1.57049 3.92186,-2.85544 4.49188,-2.85544 1.50919,0 8.76786,7.09121 9.25811,9.04451 0.30777,1.22626 -0.1895,2.35509 -1.89132,4.29336 -1.26989,1.44632 -2.75082,3.68736 -3.29096,4.9801 -2.20814,5.28485 -0.60092,13.56688 3.93213,20.26228 2.99816,4.42833 5.794,6.06578 12.05548,7.06057 2.45832,0.39056 4.78868,0.90727 5.17857,1.14823 1.06785,0.65997 0.90422,12.88194 -0.18397,13.74043 -0.49107,0.38742 -2.76875,0.91497 -5.06152,1.17235 -2.29276,0.25739 -5.073,0.93562 -6.17831,1.5072 -6.23166,3.22252 -11.81209,15.41227 -10.42952,22.782 0.25666,1.36813 1.90245,4.43788 3.65729,6.82167 1.75485,2.3838 3.19063,4.67394 3.19063,5.08921 0,0.93757 -6.99562,8.39761 -8.76062,9.34221 -1.02586,0.54902 -2.18552,0.0229 -5.58955,-2.53596 -4.72363,-3.55082 -7.63298,-4.40575 -12.6519,-3.71783 -4.09165,0.56083 -11.2266,3.8997 -13.97263,6.53864 -2.89465,2.78178 -4.70557,7.20413 -4.7239,11.53602 -0.009,2.03931 -0.32064,3.89632 -0.69337,4.12668 -0.94784,0.5858 -11.54468,1.10329 -13.11287,0.64036 z m 9.95619,-52.85318 c 8.4823,-4.02511 11.97224,-17.00453 7.13003,-26.51725 -2.90269,-5.70244 -6.36578,-8.03302 -11.93653,-8.03302 -8.74364,0 -14.03028,7.61617 -13.35722,19.24298 0.40354,6.97088 2.42364,10.90444 7.26674,14.14987 3.93191,2.63483 7.07913,2.96911 10.89698,1.15742 z"
       id="path4599"
       inkscape:connector-curvature="0"
       transform="matrix(0.26458333,0,0,0.26458333,0,217.62498)" />
    <path
       style="fill:url(#radialGradient6357);fill-opacity:1;stroke:#000000;stroke-width:2.69966269;stroke-miterlimit:4;stroke-dasharray:none;stroke-opacity:1"
       d="m 82.262421,157.86888 c -1.939767,-0.78044 -2.857142,-2.63737 -2.857142,-5.78335 0,-6.2087 -3.568626,-10.79283 -11.071429,-14.22196 -8.221685,-3.7577 -14.995764,-3.23738 -20.405651,1.56737 -3.156388,2.80331 -3.773197,3.08752 -5.127662,2.36263 -1.971798,-1.05527 -9.109544,-8.52244 -9.109544,-9.52997 0,-0.4205 0.970863,-1.94237 2.157473,-3.38193 2.655059,-3.22104 4.94874,-8.14495 4.969697,-10.66857 0.0262,-3.15547 -2.667847,-10.75703 -5.145592,-14.51885 C 32.759908,99.272119 29.11115,97.175769 23.230946,96.546055 19.860304,96.185083 18.495934,95.715183 17.97109,94.734505 17.093501,93.094712 17.053242,83.324226 17.91844,81.95767 c 0.351661,-0.555436 2.653631,-1.276498 5.167634,-1.618695 7.0544,-0.96022 10.357089,-3.381793 13.787117,-10.108888 4.864462,-9.540362 4.386518,-15.410297 -1.854583,-22.777322 -2.126659,-2.510319 -2.18603,-2.738557 -1.131163,-4.348487 1.999971,-3.05234 7.743788,-8.35928 9.047433,-8.35928 0.700679,0 2.463847,0.945601 3.91815,2.101336 6.058517,4.814704 12.629865,5.461779 20.40939,2.009699 7.617833,-3.38033 11.381164,-8.282758 11.412885,-14.867371 0.02537,-5.266752 0.85576,-5.84811 8.492363,-5.945538 7.522831,-0.09598 7.923652,0.171566 7.94096,5.300524 0.03229,9.55998 10.674314,17.57971 22.550144,16.993535 4.68738,-0.231363 5.30479,-0.460193 8.8433,-3.2776 2.09226,-1.665879 4.35604,-3.028871 5.03064,-3.028871 1.55406,0 9.30114,8.057733 9.30114,9.674106 0,0.664801 -1.00449,2.352786 -2.23221,3.751077 -5.21042,5.934334 -5.5336,12.863418 -1.02543,21.985093 3.55473,7.192492 8.08733,10.287267 15.0854,10.300026 4.07169,0.0074 4.74675,1.159683 4.77894,8.157134 0.0316,6.883835 -0.32459,7.531078 -4.15563,7.5502 -3.99328,0.01993 -9.19449,2.030192 -11.52818,4.45565 -3.33089,3.461882 -6.0349,9.441902 -6.86042,15.172082 -0.69556,4.82815 -0.86325,5.15117 -3.5468,6.83261 -3.09539,1.93949 -9.55993,8.66774 -10.67104,11.10635 -0.54753,1.20169 -1.52127,1.6308 -4.38145,1.93084 -8.37234,0.87828 -16.50079,5.78741 -19.115947,11.54497 -0.725643,1.59758 -1.3229,4.56013 -1.33155,6.60485 -0.0086,2.03931 -0.320643,3.89632 -0.693372,4.12668 -0.996735,0.61602 -11.642779,1.14982 -12.893743,0.6465 z M 97.615686,119.8203 c 1.803478,-0.79777 5.116524,-3.31071 7.362324,-5.58432 6.68375,-6.76652 10.14155,-15.725668 10.14155,-26.276697 0,-14.25747 -6.60005,-26.126343 -17.499996,-31.470269 -3.721257,-1.824424 -5.085357,-2.101159 -10.357143,-2.101159 -7.81692,0 -12.434145,2.09486 -18.095865,8.210194 -11.219605,12.118513 -12.873102,31.930399 -3.852811,46.163651 2.555507,4.03238 8.550173,9.36066 12.850509,11.42201 3.359527,1.61038 4.374878,1.75724 9.956703,1.44016 4.031843,-0.22903 7.36775,-0.8627 9.494729,-1.80357 z"
       id="path4601"
       inkscape:connector-curvature="0"
       transform="matrix(0.26458333,0,0,0.26458333,0,217.62498)" />
    <path
       style="fill:#2b0000;fill-opacity:1;stroke:#000000;stroke-width:2.69966269;stroke-miterlimit:4;stroke-dasharray:none;stroke-opacity:1"
       d="m 81.905279,115.34056 c -3.274349,-1.23378 -7.970013,-4.65633 -9.950145,-7.25242 -5.0574,-6.6306 -7.546653,-16.721507 -6.177598,-25.042697 3.351408,-20.370026 21.077622,-29.733495 34.108905,-18.017252 14.181309,12.750219 12.078409,39.439039 -3.842705,48.769439 -3.581092,2.09866 -10.623852,2.86724 -14.138457,1.54293 z m 8.32253,-11.32799 c 3.677545,-1.02146 7.42463,-5.436905 8.900488,-10.488042 1.006273,-3.443973 1.079783,-4.894763 0.438989,-8.663837 -1.36667,-8.03862 -6.043685,-12.967496 -12.304865,-12.967496 -6.630167,0 -11.358482,5.594117 -11.96444,14.155251 -0.59148,8.356579 2.052838,14.258134 7.65727,17.089404 3.63735,1.83754 3.755153,1.85171 7.272558,0.87472 z"
       id="path4605"
       inkscape:connector-curvature="0"
       transform="matrix(0.26458333,0,0,0.26458333,0,217.62498)" />
    <path
       style="fill:#ff6600;fill-opacity:1;stroke:#000000;stroke-width:2.69966269;stroke-miterlimit:4;stroke-dasharray:none;stroke-opacity:1"
       d="m 87.796875,61.226562 c -4.361635,-0.103035 -8.737966,1.698206 -12.548828,5.419922 -3.805947,3.716917 -5.960187,7.690036 -7.597656,14.015625 -1.875316,7.244395 -1.122745,14.028173 2.378906,21.455081 2.257819,4.78878 4.642436,7.46184 9.337891,10.46875 2.540887,1.62715 3.968184,2.02705 7.142578,2.00195 7.169318,-0.0567 12.492685,-3.05961 16.503904,-9.31055 7.542,-11.753188 6.31884,-28.581193 -2.76367,-38.039059 -3.745437,-3.90022 -8.09149,-5.908683 -12.453125,-6.011719 z m -0.738281,9.822266 c 2.128444,0 4.571585,0.359922 5.429687,0.800781 7.390742,3.797073 10.691289,16.002908 6.640625,24.556641 -1.985603,4.19298 -5.53048,7.69533 -8.9375,8.83203 -2.998362,1.00037 -3.468035,0.98674 -6.142578,-0.18164 -6.688722,-2.922 -9.830749,-8.388522 -9.792969,-17.041015 0.02072,-4.745244 0.348056,-6.296725 2.050782,-9.701172 2.646051,-5.290538 5.570654,-7.265625 10.751953,-7.265625 z"
       id="path6249"
       inkscape:connector-curvature="0"
       transform="matrix(0.26458333,0,0,0.26458333,0,217.62498)" />
  </g>
</svg>
